<svg width="1440" height="680" viewBox="0 0 1440 680" fill="none" xmlns="http://www.w3.org/2000/svg">
<rect width="1440" height="680" fill="#C6C6C6"/>
<path d="M664.056 259.111C666.848 259.111 669.111 256.848 669.111 254.056C669.111 251.263 666.848 249 664.056 249C661.263 249 659 251.263 659 254.056C659 256.848 661.263 259.111 664.056 259.111Z" fill="#EBEBEB"/>
<path d="M659 254.056H669.111V289.444H659V254.056Z" fill="#EBEBEB"/>
<path d="M684.278 259.111C687.07 259.111 689.333 256.848 689.333 254.056C689.333 251.263 687.07 249 684.278 249C681.486 249 679.222 251.263 679.222 254.056C679.222 256.848 681.486 259.111 684.278 259.111Z" fill="#EBEBEB"/>
<path d="M679.222 254.056H689.333V289.444H679.222V254.056Z" fill="#EBEBEB"/>
<path d="M704.5 259.111C707.292 259.111 709.555 256.848 709.555 254.056C709.555 251.263 707.292 249 704.5 249C701.708 249 699.444 251.263 699.444 254.056C699.444 256.848 701.708 259.111 704.5 259.111Z" fill="#EBEBEB"/>
<path d="M699.445 254.056H709.556V289.444H699.445V254.056ZM674.167 319.778H694.389V420.889H674.167V319.778Z" fill="#EBEBEB"/>
<path d="M684.278 431C689.862 431 694.389 426.473 694.389 420.889C694.389 415.305 689.862 410.778 684.278 410.778C678.694 410.778 674.167 415.305 674.167 420.889C674.167 426.473 678.694 431 684.278 431Z" fill="#EBEBEB"/>
<path d="M699.444 289.444C699.444 292.235 697.18 294.5 694.389 294.5C691.598 294.5 689.333 292.235 689.333 289.444H679.222C679.222 292.235 676.957 294.5 674.167 294.5C671.376 294.5 669.111 292.235 669.111 289.444H659C659 308.989 664.056 324.833 684.278 324.833C704.5 324.833 709.556 308.989 709.556 289.444H699.444Z" fill="#EBEBEB"/>
<path d="M664.056 294.5C666.848 294.5 669.111 292.237 669.111 289.444C669.111 286.652 666.848 284.389 664.056 284.389C661.263 284.389 659 286.652 659 289.444C659 292.237 661.263 294.5 664.056 294.5Z" fill="#EBEBEB"/>
<path d="M684.278 294.5C687.07 294.5 689.333 292.237 689.333 289.444C689.333 286.652 687.07 284.389 684.278 284.389C681.486 284.389 679.222 286.652 679.222 289.444C679.222 292.237 681.486 294.5 684.278 294.5Z" fill="#EBEBEB"/>
<path d="M704.5 294.5C707.292 294.5 709.555 292.237 709.555 289.444C709.555 286.652 707.292 284.389 704.5 284.389C701.708 284.389 699.444 286.652 699.444 289.444C699.444 292.237 701.708 294.5 704.5 294.5Z" fill="#EBEBEB"/>
<path d="M760.667 319.778H780.889V420.889H760.667V319.778Z" fill="#EBEBEB"/>
<path d="M770.778 431C776.362 431 780.889 426.473 780.889 420.889C780.889 415.305 776.362 410.778 770.778 410.778C765.194 410.778 760.667 415.305 760.667 420.889C760.667 426.473 765.194 431 770.778 431Z" fill="#EBEBEB"/>
<path d="M770.778 249C775.833 249 780.889 254.056 780.889 264.167V345.056C780.889 345.056 745.5 355.167 745.5 304.611C745.5 274.278 760.667 249 770.778 249Z" fill="#EBEBEB"/>
</svg>
